<?xml version="1.0" encoding="UTF-8"?>
<svg id="Layer_1" xmlns="http://www.w3.org/2000/svg" version="1.1" viewBox="0 0 800 800">
  <!-- Generator: Adobe Illustrator 29.2.1, SVG Export Plug-In . SVG Version: 2.1.0 Build 116)  -->
  <defs>
    <style>
      .st0 {
        fill: #f7f6f5;
      }

      .st1 {
        fill: #36a295;
      }

      .st2 {
        fill: #051838;
      }

      .st3 {
        fill: #5cb681;
      }

      .st4 {
        fill: #fcfdfc;
      }

      .st5 {
        fill: #309b9d;
      }

      .st6 {
        fill: #0a295e;
      }

      .st7 {
        fill: #000744;
      }

      .st8 {
        fill: #e8ca45;
      }

      .st9 {
        fill: #0d4071;
      }

      .st10 {
        fill: #148194;
      }

      .st11 {
        fill: #7cbe75;
      }

      .st12 {
        fill: #6cb97a;
      }

      .st13 {
        fill: #13202b;
      }

      .st14 {
        fill: #2c94a3;
      }

      .st15 {
        fill: #0c4071;
      }

      .st16 {
        fill: #052577;
      }

      .st17 {
        fill: #4bb087;
      }

      .st18 {
        fill: #454d55;
      }

      .st19 {
        fill: #0c3f71;
      }

      .st20 {
        fill: #8ec26f;
      }

      .st21 {
        fill: #051650;
      }

      .st22 {
        fill: #3eaa8e;
      }

      .st23 {
        fill: #023657;
      }

      .st24 {
        fill: #2f3c45;
      }

      .st25 {
        fill: #f1e23e;
      }

      .st26 {
        fill: #f6f5f5;
      }
    </style>
  </defs>
  <path class="st15" d="M449.16,207.28c-.28,1.58.79.82,1.7.96,2.2.34,4.48.86,6.6,1.48.66.19,1.64.68,2.44.98.25.9,1.1,1.06,1.95.98,1.17.78.9.93.98.98.06.94,1.37.88,1.46.98.32.34,2.71,3.11,2.93,3.42,7.05,9.91,6.33,24.83-.49,34.67-1.33,1.92-1.58,2.05-3.42,3.42-2,1.49-4.54,2.94-6.84,3.91-8.9,2.11-17.92,1.38-27.02,1.46-.54.14-.26.93-.32.99-.08.08-1.16-.27-1.02.7l.04,21.77h-14.16s0-76.18,0-76.18c10.58-.38,21.5.51,32.04.04.89-.04,1.54-.52,1.65-.52.16-.01.33.02.49,0,.32-.03.66.04.98,0ZM429.14,221.44l.49,25.88c.21.53.69.47,1.17.52,6.84.7,16.77.81,22.27-3.44s7.09-10.85,2.93-17.09c-5.45-8.17-15.42-6.46-24.18-6.36-.83.01-2.17-.31-2.68.5Z"/>
  <path class="st19" d="M561.95,225.34c6.1,2.51,9.19,4.41,13.67,9.28,1.15,2.67,3.11,5.08,4.15,7.81,6.28,16.48-.14,34.94-16.85,41.27-.76.29-1.74-.14-1.46,1.21-1.06.36-2.77.7-3.91.98-4.77-.13-8.96.7-13.87-.05-11.79-1.79-21.77-9.19-25.06-20.84-3.25-11.52-.3-27.33,9.63-34.77,6.19-4.64,16.05-6.81,23.7-6.37,3.37.2,6.69,1.6,9.99,1.49ZM536.07,237.55c-.01.16,0,.33,0,.49l-1.27,1.99-5.73-.55c-1.66.4-.54,8.57-.06,10.25.23.81,1.98,4.23,2.45,4.88s1.38.69,1.68,1c.16.16.33.35.49.49.45.37.59.9,1.46,1.46.11.07.37-.07.49,0-.22,1.09,1.73,1.76,2.49,2.14,1.14.57,3.15,1.07,4.15,1.92.63.54,4.48,4.96,4.57,5.47.22,1.11-.1,2.49.01,3.65-.16.03-.34-.04-.49,0-1.91.54-3.93,2.09-6.14,2.4-.73.61-1.11,2.26-.41,3.02,1.11.79,13.17.47,15.59.44.83-.01,2.17.31,2.68-.5.17-.02.38.05.49,0,.67-.32.56-.53.53-1.23-.13-2.62-5.87-3.39-7.85-5.12-.04-.32.02-.66,0-.98.79-.75.62-2,.98-2.93.51-1.34.62-.91,1.46-1.95.14-.17.34-.32.49-.49.85-.94,1.71-1.9,2.44-2.93.1-.08.38.08.49,0,1.32-.42,2.86-.9,4.07-1.55,1.1-.59,3.84-2.49,4.72-3.33,4.2-4.01,4.93-9.18,4.33-14.82l-.39-.59-6.38.28-.98-1.47c0-.33,0-.65,0-.98,0-.13.6-1.26-.32-1.49l-26.05.02c-.03.32.02.65,0,.98Z"/>
  <path class="st18" d="M193.3,224.85c.07-.28.17-1.04-.28-.98l-31.95.5v-12.21l50.78.24v10.5s-.67-.08-.82.14c-.34.52-.38,1.12-.63,1.44-.68.92-2.69,2.19-2.46,3.79-.16.2-.37.34-.49.49-6.93,8.6-13.43,17.88-19.53,26.86-3.54,5.2-6.87,10.61-10.74,15.62l.28.98,33.91-.5-.46,11.51-51.3.22.49-11.72c7.75-14.37,21.69-29.29,30.94-43.02.31-.46,2.21-3.64,2.27-3.86Z"/>
  <path class="st18" d="M214.29,250.25c1.24-9.51,5.61-14.04,14.04-17.92,3.22-1.48,4.33-.88,7.6-1.62.4-.09.12-.88,1.03-1,3.11-.42,3.69.97,3.91.96.94-.04,1.9-.77,3.35-.42.34.08.33.8.72.92,2.94.9,5.41.99,8.04,2.96,7.79,5.85,9.98,14.98,9.65,24.43l-1.26,2.96-35.07-.04c-.47-.06-.33.66-.29.98.19,1.35,2.9,7,3.88,8.09,1.92,2.13,4.52,2.4,6.98,3.19.39.13.38.84.72.92.7.16,3.01.16,3.71,0,.35-.08.33-.79.72-.92,3.7-1.19,6.59-2.31,9.7-4.84,1.63-.33,7,5,7.95,6.58.08.45-1.93,2.62-2.4,3.1-2.15.29-3.76,2.48-5.67,3.37-4.02,1.88-8.98,2.58-13.38,2.49-2.37-.05-4.45-.14-6.76-.81l-6.43-2.12c-2.27-1.51-4.56-3.72-6.35-5.86-.5-2.14-2.08-4.12-2.81-6.22-2.07-5.95-2.39-12.95-1.58-19.17ZM250.43,252.69c.05-3.05-1.09-4.53-2.42-6.71-.53-.86-.76-2.11-1.47-2.83-2.6-2.63-8.96-2.94-12.37-2.17-.42.09-.38.81-.68.96-4.26,2.1-6.66,5.7-6.49,10.75.01.35-.22,1.04.29.99h23.15c.02-.34,0-.66,0-.99Z"/>
  <path class="st18" d="M346.13,240.48c.42.69,1.64,2.61,1.9,3.2.97,2.22,1.24,4.96,2.49,7.05,0,.16,0,.33,0,.49.13,3.98.25,8.76,0,12.7-.51,8.16-6.29,15.65-13.67,19.04l-7.14,1.4-6.53.55c-13.16-1.55-20.27-7.36-22.95-20.51v-12.7c1.46-7.09,4.16-13.13,10.3-17.29,1.99-1.35,4.06-1.91,6.3-2.73l13.67-1.46c6.91,1.19,12.02,4.35,15.62,10.25ZM336.36,247.8c-2.17-5.44-7.64-7.5-13.22-6.6-.81.13-1.71.07-1.43,1.23-.78.17-1.19-.17-2.22.46-1.92,1.18-3.66,3.47-4.62,5.4-1.03-.31-1.86,2.48-2.04,3.08-.98,3.2-1.02,5.56-.89,8.9.04.94-.5,1.96.98,1.69.51,2.9,1.3,4.94,3.22,7.28,3.72,4.55,11.02,6.61,16,2.9,7.25-5.39,8.16-16.71,4.22-24.34Z"/>
  <path class="st9" d="M499.94,227.78l3.65-1.11c2.55-2.18,7.13-1.8,10.51-1.82v13.67c-3.21.33-9.26.35-12.07,1.61-.5.22-5.51,4.41-5.97,5.11-.37.55-1.89,3.35-1.98,3.83-.24,1.29.48,1.88.49,2.15.02.32,0,.65,0,.98h-.98c-.83,1.24-.81,4.23,0,5.37-.02.81.02,1.63,0,2.44v23.93s-7.32,0-7.32,0h-5.86l-.49-.49c1.09-18.83-.82-38.68,0-57.62h13.67s-.01,6.55-.01,6.55c-.06.46.72.37.98.28.96-.32,3.56-3.93,4.4-4.65.38-.33.9-.17.97-.23Z"/>
  <path class="st14" d="M482.36,114.99c0,.16,0,.33,0,.49-.74.39-.52,1.67-.49,2.44,0,.16,0,.33,0,.49-1.87,4.03-1.79,8.86-2.44,13.18-.42,2.81-.54,6.84-1.48,9.51-.22.62-1.47,2.56-1.94,2.7-.68-.72-1.78-.53-2.63-1.03-2.39-1.4-4.1-9.4-6.16-10.69-.14-.09-.67.05-.98,0-.05,0-.13-.54-.46-.49-.11.75-.56,1.38-1,1.96-.71.92-1.82,1.66-1.95,2.93-.16.17-.32.33-.49.49-2.09,2.03-2.13,3.2-5.37,1.95l-.73,1.95c-1.07-.61-1.09-1.9-1.71-2.71-.34-.44-1.04-.55-1.51-1.06-.53-.58.04-2.07-1.92-1.6v-.97c2.57-.08-.42-2.78-.77-3.89-.81-2.62.9-2.14,1.58-3.11.41-.58.58-1.49,1.14-2.28.7-1,1.63-.79,1.95-2.93.02-.15,0-.33,0-.49-.01-.31.09-.63-.03-.94l-12.67-3.45c-.45-1.27-.74-2.72.51-3.64,1.5-1.1,7.6-2.73,9.89-3.8.56-.26.77-.84.82-.86.15-.07.29-.4.49-.49,1.06.81,3.83-.62,5.01-1.09,5.44-2.16,16.17-7.59,21.22-8.56,1.08-.21,2.16-.23,3.24-.05,1.17.39.86,2.6.79,3.58-.29,4.07-1.75,8.06-1.94,12.46Z"/>
  <path class="st18" d="M287.05,232.67c3.11-1.27,6.88-1.94,10.25-1.95v11.23h-3.91s0,.98,0,.98c-5.07.48-8.28,2.82-10.74,7.32-.41.75-1.76,1.58-1.46,3.18v30.03h-12.21v-51.27l11.41.07c1.67.55.04,3.68,1.29,4.81.09.91,1.57-.96,1.63-1.03,1.69-2.04.49-2.03,3.74-3.36Z"/>
  <path class="st5" d="M453.06,125.25c-.56.79-.73,1.7-1.14,2.28-.68.97-2.4.49-1.58,3.11.35,1.12,3.34,3.81.78,3.89v.97c1.95-.46,1.38,1.02,1.91,1.6.46.51,1.16.62,1.51,1.06.62.8.65,2.1,1.71,2.71l.73-1.95c3.24,1.24,3.27.08,5.37-1.95-1.28,1.65-2.51,3.45-3.94,4.98-7.28,7.81-13.39,13.53-21.46,20.41.11-.83-.17-2.04-1.22-1.96-.17.01-.32,2.45-2.13,1.91-.74-.71-.85-2.84-1.15-3.27-.36-.5-1.71-.21-1.87-.92-.78-3.39-.1-4.59.76-7.49.58-1.96-.43-1.54,1.7-3.91.33-.37.64-.64.98-.98,2.22-2.26,4.15-3.92,6.35-6.35,4.14-4.57,8.37-9.33,12.21-14.16h.49Z"/>
  <path class="st1" d="M433.04,146.73c-2.13,2.37-1.12,1.95-1.7,3.91-.86,2.9-1.54,4.1-.76,7.49.16.71,1.52.42,1.87.92.3.42.41,2.56,1.15,3.27,1.81.54,1.96-1.9,2.13-1.91,1.05-.08,1.33,1.13,1.22,1.96-.04.03.09.61-.35.98-9.45,7.96-19.61,15.52-30.41,21.48,2.27-1.58,4.44-3.28,6.88-4.59l.44-1.75-2.46.29c-.87-2.4-1.73-5.15-4.78-4.76-1.65-2.54,2.38-2.62.89-5.3-1.25-.18-1.6,1.04-2.05,1.85l-3.32.59c11.06-7.3,21.2-15.82,31.25-24.41Z"/>
  <path class="st22" d="M401.79,171.14l3.32-.59c.45-.81.8-2.03,2.05-1.85,1.49,2.68-2.54,2.76-.89,5.3,3.05-.39,3.91,2.36,4.78,4.76l2.46-.29-.44,1.75c-2.44,1.31-4.6,3.01-6.88,4.59-5.6,3.89-11.3,6.76-17.09,9.77.12-.88-2.17-2.62-2.32-3.06-.34-.98.45-2.02-1.1-4.02-1.24-1.6-3.4-1.75-2.93-4.15-3.12,1.18-5.91,3.21-9,4.37-.31.12-.25-.48-.27-.47,9.6-4.81,19.26-10.13,28.32-16.11Z"/>
  <path class="st23" d="M383.24,239.5c5.18-1.96,12.16-2.24,16.35,1.96,1.25,1.25,1.55,3.55,3.18,3.9,1.28,3.47,1.4,10.06-.46,13.33-.12.21-1.07.88-1.49,1.32-2.02,2.12-4.62,3.96-7.62,4.34-12.07,1.54-17.92-5.99-15.81-17.52.49-1.62,1.47-4.14,2.63-5.42.38-.41,2.55-1.65,3.23-1.91ZM385.19,244.87c-.58.42-2.3,3.41-2.32,4.27-.28,1.83-.29,4.26.37,5.98,1.58,5.75,9.01,7.41,12.69,2.55,6.44-8.51-2.44-19.85-10.74-12.8Z"/>
  <path class="st17" d="M373.47,187.26s-.04.58.27.47c3.09-1.16,5.88-3.19,9-4.37-.47,2.41,1.69,2.55,2.93,4.15,1.54,2,.76,3.04,1.1,4.02.15.44,2.44,2.18,2.32,3.06-1.79.93-3.59,2.05-5.37,2.93-5.6,1.5-10.4,4.86-16.11,6.35-.21.06-.4.28-.49.49-.75.31-1.9.26-2.44.49.38-2.57-1.04-.85-2.44-.98,1.26-3.87-1.08-6.12-.98-9.76,2.76-1.27,5.27-2.89,7.81-4.39,1.44-.85,2.82-1.83,4.39-2.44ZM364.19,196.54h-.97v.97h.97v-.97Z"/>
  <path class="st23" d="M361.27,254.15v-10.26s-3.45-.21-3.45-.21l-.46-5.65h3.91s0-8.3,0-8.3h6.35v8.3c1.29.06,2.62-.09,3.91,0l1.95.49v4.4s-5.85.49-5.85.49c-.02.16.02.33,0,.49-.81.51-.49,1.85-.5,2.68-.02,2.36-.39,10.62.51,12.11.32.53.92.3.97.35.17.19-.29,1.13,1.33,1.37,1.39.21,2.25-.33,3.53-.38l.48,3.87c-2.75.36-7,1.39-9.26-.7-.72-.66-2.43-4.03-2.43-4.89v-14.4c-.86-.11-.46,1.1-.49,1.7-.1,2.45.05,4.92.02,7.37,0,.63-.51,1.12-.51,1.18Z"/>
  <path class="st12" d="M343.2,201.91c1.31.63-.2,3.74,0,3.9l1.41.04c-.63,2.36,1.79,2.25,2.5,3.38.19.3.63,2.28.49,2.44-1.54.12-2.98.72-4.41,1.23-.78.28-1.73-.11-1.45,1.21-11.33,3.34-25.13,6.52-37.91,8.23-1.55.21-4.19.84-5.55.07,2.74-.44,5.55-1.02,8.3-1.46,7.87-1.28,15.72-2.33,23.44-4.4-.43-1.75-2.21-2.38-3.24-3.61-.53-.63.44-1.74-2.14-1.27v-3.42c-3.57.63-6.94,2.13-10.45,3-.79.2-1.54.69-2.24-.07,5.22-1.52,10.44-3.23,15.62-4.88.43.94,1.56.21,2.21.01,2.98-.89,5.45-2.32,8.05-3.43,1.31-.39,4.19-.53,5.37-.98Z"/>
  <path class="st20" d="M285.09,218.02c.09,0,.78.92,1.64.47l17.89-4.37c-.05,1.14.53,2.55-.93,2.47l-.04.69c1.67,1.01,3.07,1.3,2.93,3.67-2.75.45-5.56,1.03-8.3,1.46-5.06.81-10.21,1.32-15.36,1.48-9.05.29-18.08-.41-27.12-.51-.79-.6,0-.88.72-.97,2.5-.31,5.14-.19,7.75-.57,3.02-.44,6-1.21,9.04-1.59,1.57-.2,3.39-.12,4.69-.28,2.96-.35,4.39-1.77,7.1-1.96Z"/>
  <path class="st11" d="M311.95,211.18c.71.76,1.45.27,2.24.07,3.51-.87,6.88-2.37,10.45-3v3.42c2.58-.47,1.61.64,2.14,1.27,1.03,1.23,2.81,1.86,3.24,3.61-7.72,2.07-15.56,3.12-23.44,4.4.14-2.37-1.25-2.66-2.93-3.67l.04-.69c1.46.08.89-1.34.93-2.47l-17.89,4.37c-.86.45-1.55-.47-1.64-.47,8.99-2.09,17.99-4.26,26.86-6.84Z"/>
  <path class="st3" d="M361.27,194.09c-.1,3.64,2.24,5.9.98,9.76,1.4.12,2.82-1.6,2.44.98-.08.03-.32.66-.83.86-2.2.9-5.28,1.38-6.99,3.04-.16.03-.33-.03-.49,0-1.79.3-5.46,1.01-7.05.99-.15,0-.45-1.96-2.23-.51-.71-1.13-3.13-1.02-2.5-3.38l-1.41-.04c-.2-.16,1.31-3.28,0-3.9.17-.07,1.99-1.59,2.93-1.95,5-1.92,10.28-3.62,15.14-5.86Z"/>
  <path class="st4" d="M413.51,207.28v77.15l.71.5h14.92s0-23.45,0-23.45c5.75-.3,11.88.41,17.58,0,.27,1.48-.75.94-1.69.98-4.96.2-9.96-.14-14.91,0v22.95c-.62-.27-1.45.49-1.71.49h-15.14l-.73-78.86c.35-.77.93.24.98.24Z"/>
  <path class="st24" d="M193.3,224.85l-32.71.49v-14.65h52.25v11.47c0,.39-4.31,5.4-4.88,6.1-.23-1.59,1.78-2.87,2.46-3.79.24-.32.28-.92.63-1.44.15-.22.82-.1.82-.14v-10.5l-50.78-.24v12.21l31.95-.5c.45-.05.35.7.28.98Z"/>
  <path class="st24" d="M177.18,271.24c9.99-.26,20.06.34,30.05.02.88-.03,5.11-1.23,5.11.22v12.94h-53.22v-11.48c.2-1.06.89-1.06.98-1.21l-.49,11.72,51.3-.22.46-11.51-33.91.5-.28-.98Z"/>
  <path class="st13" d="M268.98,232.18v51.27h12.21v-30.03c-.29-1.6,1.06-2.43,1.46-3.18-.11,2-.97,4.73-.99,6.61-.1,8.34,1.51,17.5.53,25.88-.08.71-.06,1.26-.76,1.68h-12.94v-52.73l.49.49Z"/>
  <path class="st7" d="M415.95,207.28c.81.01,1.63,0,2.44,0,.49,0,.98,0,1.46,0,1.79,0,3.59,0,5.37,0,1.14,0,2.28,0,3.42,0,.98,0,1.95,0,2.93,0h16.11c-.11,0-.76.48-1.65.52-10.54.47-21.47-.42-32.04-.04v76.17s-.49.49-.49.49v-77.15c.72.1,1.66-.01,2.44,0Z"/>
  <path class="st7" d="M479.92,225.83c-.82,18.94,1.09,38.79,0,57.62,0,.17.03.35,0,.49-.05.23-.26.41-.49.49,1.16-6.81-2.08-56.99,0-59.08l.49.49Z"/>
  <path class="st6" d="M499.94,227.78c.48-.39.6-1.02,1.61-1.57,4.1-2.24,8.96-2.53,13.53-2.34v15.62c-8.74-.46-18.98,1.63-20.51,11.72-.01-.27-.73-.85-.49-2.15.09-.47,1.61-3.28,1.98-3.83.47-.69,5.48-4.88,5.97-5.11,2.81-1.26,8.86-1.29,12.07-1.61v-13.67c-3.38.02-7.95-.36-10.51,1.82l-3.65,1.11Z"/>
  <path class="st13" d="M226.01,262.45c-.04-.32-.18-1.04.29-.98l35.07.04,1.26-2.96c-.05,1.4.59,3.69-1.22,3.91h-35.4Z"/>
  <path class="st6" d="M528.26,230.23c-9.93,7.45-12.88,23.25-9.63,34.77,3.29,11.65,13.26,19.05,25.06,20.84,4.91.74,9.09-.09,13.87.05-28.02,6.86-49.71-18.91-37.97-45.54,2.1-4.76,4.56-7.52,8.67-10.61v.49Z"/>
  <path class="st6" d="M575.62,234.62c12.43,13.5,8.56,37.54-6.87,47.08-2.39,1.48-4.65,2.31-7.29,3.21-.29-1.35.7-.92,1.46-1.21,16.71-6.33,23.13-24.79,16.85-41.27-1.04-2.74-3-5.15-4.15-7.81Z"/>
  <path class="st10" d="M482.36,114.99c.19-4.4,1.66-8.39,1.94-12.46.07-.99.38-3.2-.79-3.58-1.08-.18-2.16-.16-3.24.05-5.05.97-15.78,6.4-21.22,8.56-1.18.47-3.95,1.9-5.01,1.09,6.96-3.16,18.5-8.36,25.61-10.27,2.81-.76,5.58-.38,5.65,3.18.04,2.29-1.45,8.57-1.97,11.24-.16.84-.07,1.71-.97,2.21Z"/>
  <path class="st6" d="M494.57,252.2c.02.81,0,1.63,0,2.44v29.79c-.06.62-.54.45-.98.49-3.19-.86-7.14-.53-10.51-.5-.83,0-2.17-.31-2.68.5-.43-.04-.92.13-.98-.49.22-.08.44-.26.49-.49h13.67s0-8.79,0-8.79v-15.14c.02-.81-.02-1.63,0-2.44.05-1.78-.04-3.59,0-5.37h.98Z"/>
  <path class="st21" d="M561.95,225.34c-3.3.11-6.62-1.29-9.99-1.49-7.65-.45-17.51,1.73-23.7,6.37v-.49c9.07-6.83,23.24-8.7,33.69-4.39Z"/>
  <path class="st6" d="M456.48,259.03c-2.27.95-5.93,2.17-8.3,2.44-.48.05-.98-.03-1.46,0-5.69.41-11.83-.3-17.58,0v23.44s-14.92.01-14.92.01l-.71-.5.49-.49h14.16s-.04-21.76-.04-21.76c-.15-.97.94-.62,1.02-.7.06-.06-.22-.84.32-.99,9.1-.08,18.12.66,27.02-1.46Z"/>
  <path class="st13" d="M287.05,232.67c2.82-2.97,7.48-2.44,11.23-2.44v11.47c0,.13-.5,1.14-.82,1.24-1.34.09-2.73-.14-4.06-.02v-.98s3.91,0,3.91,0v-11.23c-3.38.01-7.14.68-10.25,1.95Z"/>
  <path class="st6" d="M479.43,225.34c.47-.47.49-.45,1.17-.52,4.38-.44,9.5.38,13.97.02v7.82c-.26.09-1.05.17-.99-.28v-6.55s-13.66,0-13.66,0l-.49-.49Z"/>
  <path class="st17" d="M347.11,209.23c1.78-1.46,2.08.5,2.23.51,1.59.01,5.26-.69,7.05-.99-.31.93-1.19.96-1.94,1.24-4.19,1.55-8.43,2.87-12.71,4.14-.28-1.32.67-.94,1.45-1.21,1.43-.51,2.87-1.11,4.41-1.23.14-.16-.3-2.14-.49-2.44Z"/>
  <path class="st24" d="M214.29,250.25c-.81,6.22-.49,13.22,1.58,19.17.73,2.1,2.31,4.08,2.81,6.22-5.3-6.32-6.02-14.65-5.37-22.71.08-1,.28-1.93.98-2.68Z"/>
  <path class="st24" d="M268.49,231.69l.71-.5h12.97s-.49,5.87-.49,5.87c-1.25-1.14.38-4.27-1.29-4.81l-11.41-.07-.49-.49Z"/>
  <path class="st21" d="M468.2,217.53c0,.71.28,1.25.98,1.46.5,1.62,1.61,3.17,2.18,4.9,2.91,8.89,2.38,21.06-4.62,27.81,6.82-9.84,7.54-24.76.49-34.67h.49c.17.22.26.32.49.49Z"/>
  <path class="st4" d="M448.18,261.48c2.37-.27,6.04-1.49,8.3-2.44s4.83-2.42,6.84-3.91c.09,2.26-4.09,3.92-5.87,4.63-2.44.98-6.78,2.57-9.27,1.72Z"/>
  <path class="st19" d="M494.57,284.43v-29.79c.09,9.92-.06,19.87,0,29.79Z"/>
  <path class="st22" d="M383.73,197.51c-7.53,3.74-18.77,9.79-26.86,11.23,1.71-1.67,4.78-2.14,6.99-3.04.51-.21.75-.83.83-.86.54-.23,1.69-.18,2.44-.49.2-.08.36-.31.49-.49,5.71-1.49,10.51-4.84,16.11-6.35Z"/>
  <path class="st2" d="M361.27,254.15c0-.06.5-.55.51-1.18.03-2.45-.12-4.92-.02-7.37.02-.6-.37-1.81.49-1.7v14.4c0,.86,1.71,4.23,2.43,4.89,2.26,2.09,6.52,1.06,9.26.7l-.48-3.87c-1.28.06-2.14.6-3.53.38-1.63-.25-1.16-1.18-1.33-1.37-.05-.05-.65.18-.97-.35-.89-1.49-.53-9.75-.51-12.11,0-.83-.31-2.17.5-2.68-.28,2.06-.1,14.03.98,15.14.83.86,4.37.52,5.37-.49l.91,5.3c-8.93,4.29-13.73-.63-13.6-9.69Z"/>
  <path class="st10" d="M453.55,109.13c-.05.02-.26.6-.82.86-2.29,1.07-8.39,2.7-9.89,3.8-1.25.92-.96,2.37-.51,3.64l12.67,3.45c.11.31.01.63.03.94-3.35-1.07-9.12-1.77-12.1-3.27-.84-.42-.51-1.04-.59-1.13-.2-.21-1.61-.05-1.33-2.13.38-2.81,9.89-5.38,12.56-6.17Z"/>
  <path class="st2" d="M400.82,260.01l-2.56,3.1c-12.37,6.83-25.19-2.18-20.87-16.29-2.11,11.53,3.74,19.06,15.81,17.52,3.01-.38,5.61-2.22,7.62-4.34Z"/>
  <path class="st24" d="M300.23,264.41c-1.19-5.86-1.22-6.8,0-12.7v12.7Z"/>
  <path class="st24" d="M336.85,282.96c-5.33,2.45-8.04,2.61-13.67,1.95l6.53-.55,7.14-1.4Z"/>
  <path class="st24" d="M257.26,278.57c-4.58,4.73-12.58,6.93-19.04,6.84v-.98c4.4.09,9.36-.62,13.38-2.49,1.91-.89,3.52-3.08,5.67-3.37Z"/>
  <path class="st13" d="M330.51,230.23l-13.67,1.46c3.93-2.29,9.27-2.22,13.67-1.46Z"/>
  <path class="st24" d="M350.52,263.92c.25-3.93.13-8.72,0-12.7,1,.64.93,1.65,1,2.67.2,2.94.43,7.52-1,10.03Z"/>
  <path class="st10" d="M479.43,131.59c.65-4.33.57-9.16,2.44-13.18-.02,2.89-.54,5.85-1.13,8.88-.28,1.42-.34,3.18-1.31,4.3Z"/>
  <path class="st2" d="M383.24,239.5c2.17-2.48,7.75-2.3,10.76-1.73,3.39.64,7.59,4.41,8.77,7.59-1.63-.35-1.93-2.65-3.18-3.9-4.19-4.2-11.17-3.92-16.35-1.96Z"/>
  <path class="st4" d="M449.16,207.28c2.41-.27,3.37-.04,5.86.73.86.27,2.74.4,2.44,1.71-2.12-.62-4.4-1.14-6.6-1.48-.91-.14-1.98.61-1.7-.96Z"/>
  <path class="st13" d="M238.22,284.43v.98c-.64,0-1.34.07-1.95,0-.05-.24-.26-.46-.49-.49-4.76-.6-6.54-.64-10.74-3.42l6.43,2.12c2.3.67,4.38.76,6.76.81Z"/>
  <path class="st3" d="M337.83,202.88c-2.6,1.11-5.07,2.54-8.05,3.43-.64.19-1.77.93-2.21-.01,3.45-1.1,6.74-2.39,10.25-3.42Z"/>
  <path class="st2" d="M371.52,238.04c.81.06,2.16-.28,2.72.48l.21,4.89h-6.84s5.86-.48,5.86-.48v-4.4s-1.96-.49-1.96-.49Z"/>
  <path class="st19" d="M493.59,284.91c-3.4.32-9.79.32-13.18,0,.51-.81,1.85-.49,2.68-.5,3.36-.04,7.32-.37,10.51.5Z"/>
  <path class="st4" d="M462.83,212.65c.19.13,1.06-.12,1.46.01v.96s2.42.03,2.42.03c.01.92.49,2.72,1.01,3.39h-.49c-.22-.31-2.61-3.07-2.93-3.42-.09-.1-1.4-.03-1.46-.98Z"/>
  <path class="st17" d="M346.13,199.46v.49c-.94.36-2.76,1.89-2.93,1.95-1.18.44-4.06.59-5.37.98,2.75-1.18,5.4-2.6,8.3-3.42Z"/>
  <path class="st22" d="M369.08,189.7c-2.55,1.5-5.05,3.12-7.81,4.39-4.86,2.24-10.14,3.93-15.14,5.86v-.49l22.95-9.77Z"/>
  <path class="st24" d="M350.52,250.73c-1.25-2.09-1.53-4.83-2.49-7.05-.26-.59-1.48-2.51-1.9-3.2,2.06,1.78,4.4,6.62,4.7,9.3.08.73-.3.9-.3.95Z"/>
  <path class="st11" d="M444.27,207.28h-7.32c1.81-.81,5.42-.83,7.32,0Z"/>
  <path class="st11" d="M425.23,207.28c-1.79,0-3.59,0-5.37,0,1.14-.81,4.13-.83,5.37,0Z"/>
  <path class="st10" d="M476.01,143.8c-.42.13-2.46.1-2.83-.11-1.07-.61-5.43-9.76-5.96-11.61,2.05,1.29,3.76,9.29,6.16,10.69.85.5,1.95.31,2.63,1.03Z"/>
  <path class="st24" d="M207.46,228.76l-19.53,26.86c6.11-8.98,12.6-18.26,19.53-26.86Z"/>
  <path class="st4" d="M446.23,206.79c.63-.28,1.01-.78,1.95-.49v.97c-.16.02-.32-.01-.49,0h-1.46v-.49Z"/>
  <path class="st10" d="M481.87,117.92c-.03-.77-.26-2.05.49-2.44,0,.47.8,1.56-.49,2.44Z"/>
  <path class="st11" d="M429.63,206.79c.64-.05,1.31.04,1.95,0v.49c-.98,0-1.95,0-2.93,0,.13-.48.56-.45.98-.49Z"/>
  <path class="st4" d="M461.85,211.67c-.85.08-1.7-.08-1.95-.98.24.09.72-.06,1.14.1.57.23.66.77.82.87Z"/>
  <path class="st11" d="M435.49,207.28h-2.93c.49-.8,2.47-.78,2.93,0Z"/>
  <path class="st10" d="M453.06,125.25h-.49c.8-1,1.48-2.07,2.44-2.93-.33,2.14-1.25,1.93-1.95,2.93Z"/>
  <path class="st4" d="M468.2,217.53c.11.08.74-.17.92.04.25.28-.05,1.08.05,1.42-.7-.21-.97-.75-.98-1.46Z"/>
  <path class="st11" d="M418.4,207.28c-.81,0-1.63.01-2.44,0,.32-.77,2.12-.77,2.44,0Z"/>
  <path class="st4" d="M431.58,206.79c-.65.04-1.31-.05-1.95,0,.16-.73,1.75-.76,1.95,0Z"/>
  <path class="st5" d="M465.27,133.55c-.74,1.01-1.58,2.01-2.44,2.93.14-1.27,1.25-2.01,1.95-2.93h.49Z"/>
  <path class="st10" d="M440.37,139.41c-2.2,2.43-4.12,4.09-6.35,6.35l6.35-6.35Z"/>
  <path class="st10" d="M466.25,132.08c-.33.48-.63.99-.98,1.46h-.49c.44-.58.89-1.21,1-1.96.33-.05.41.49.46.49Z"/>
  <path class="st11" d="M446.23,206.79v.49h-.98c.23-.41.67-.35.98-.49Z"/>
  <path class="st24" d="M236.27,285.4c-.22-.02-.44-.26-.49-.49.23.03.44.25.49.49Z"/>
  <path class="st0" d="M455.51,227.3c3.6,5.81,2.38,12.92-2.93,17.09-6.81,4.39-15.27,2.55-22.95,2.93l-.49-25.88c8.06.43,21.4-2.17,26.37,5.86Z"/>
  <path class="st21" d="M453.06,244.39c-5.5,4.25-15.43,4.14-22.27,3.44-.48-.05-.96.01-1.17-.52,7.68-.38,16.14,1.46,22.95-2.93h.49Z"/>
  <path class="st21" d="M455.99,227.3h-.49c-4.97-8.03-18.31-5.42-26.37-5.86.51-.81,1.85-.49,2.68-.5,8.76-.11,18.73-1.82,24.18,6.36Z"/>
  <path class="st6" d="M453.06,244.39h-.49c5.31-4.17,6.53-11.28,2.93-17.09h.49c4.16,6.24,2.81,12.65-2.93,17.09Z"/>
  <path class="st8" d="M539.49,256.59c.44-.02,1.35.23,1.46-.24-3.08-3.27-2.81-8.75-4.01-12.58-.23-.73-1.22-1.21-1.25-1.57-.04-.5,2.14-2.7,1.36-4.16l24.1.07,1.25,3.63,6.38-.28c.43,6.07-.77,12.51-6.25,15.96-1.95,1.22-3.79,1.95-5.47,3.09-.11.08-.39-.08-.49,0-1.01.78-2.32,1.51-2.44,2.93-.15.17-.35.31-.49.49-1.33.87-2.23.33-2.44,1.95-.02.16.01.33,0,.49l-.73,4.42,6.79,3.35.29,1.51-16.6-.49c-.22-1.18.57-1.07,1.25-1.43,1.18-.62,4.73-1.77,5.1-2.96.04-.13-.02-.32,0-.49l.99-.31v-2.13s-.99,0-.99,0c0-.48.05-.99,0-1.46,0-.03.4-.13.25-.47-.29-.65-2.91-2.84-3.68-3.67-.59-.64-.7-1.7-1.09-2.08-.55-.54-5.23-1.89-6.54-2.74-5.36-3.48-7.06-10.39-6.52-16.42l5.37,1.22-3.69.7c-.89,1.25,1.26,8.13,2.23,9.56s4.49,4.2,5.86,4.15ZM566.34,243.41c-1.11-1.11-4.03-.31-4.64.98-1,2.11-.61,7.05-2.65,8.67l-.53,3.54c.13.15,1.14-.3,1.46-.49.19-.12.34-.32.49-.49,1.3-.74,1.46-.7,2.44-1.95.14-.17.37-.3.49-.49,2.48-.96,4.56-8.14,2.93-9.77Z"/>
  <path class="st25" d="M562.44,238.04c0,.33,0,.65,0,.98,0,.65,0,1.31,0,1.96h7.33c.58,5.54-.87,10.1-3.91,14.65-.88.84-3.62,2.74-4.72,3.33-1.21.65-2.75,1.13-4.07,1.55,1.68-1.14,3.52-1.86,5.47-3.09,5.48-3.44,6.68-9.89,6.25-15.96l-6.38.28-1.25-3.63-24.1-.07c.78,1.46-1.4,3.66-1.36,4.16.03.36,1.02.84,1.25,1.57,1.2,3.83.94,9.31,4.01,12.58-.11.47-1.02.23-1.46.24-1.36-3.71-2.48-7.38-3.42-11.23-.1-.4.1-1,0-1.46l-3.2-.37c-.92.17-.76,2.09-.71,2.81.33,4.32,3.72,8.17,7.32,10.25-1.37.05-4.93-2.76-5.86-4.15s-3.12-8.31-2.23-9.56l3.69-.7-5.37-1.22c-.54,6.03,1.16,12.94,6.52,16.42,1.32.86,5.99,2.2,6.54,2.74.38.38.5,1.44,1.09,2.08.77.84,3.39,3.02,3.68,3.67.15.35-.26.45-.25.47-2.13-1.19-3.74-4.46-5.39-5.6-1.48-1.03-4.35-2-6.33-3.19-.12-.07-.37.07-.49,0l-1.46-1.46c-.16-.13-.33-.33-.49-.49-3.54-4.48-4.67-9.43-4.4-15.14h7.33c.02-.81-.02-1.63,0-2.44,0-.16-.01-.33,0-.49l26.37.49Z"/>
  <path class="st16" d="M536.07,237.55c.02-.32-.03-.65,0-.98l26.05-.02c.92.23.32,1.36.32,1.49l-26.37-.49Z"/>
  <path class="st25" d="M551.21,268.8c.02.32-.04.66,0,.98.05.37-.22.8.31,1.01,2.46,2,7.93,1.52,7.02,5.34-.1.05-.31-.02-.49,0-5.28.74-12.12-.55-17.58,0-1.06-4.02,4.17-2.67,5.86-5.37.15-.04.33.03.49,0h.49c-.37,1.19-3.92,2.34-5.1,2.96-.68.36-1.47.25-1.25,1.43l16.6.49-.29-1.51-6.79-3.35.73-4.42c-.05.78-.04,1.66,0,2.44Z"/>
  <path class="st16" d="M562.44,239.01l.98,1.47,6.38-.28.39.59c.6,5.65-.12,10.81-4.33,14.82,3.04-4.55,4.49-9.1,3.91-14.65h-7.33c0-.64,0-1.3,0-1.95Z"/>
  <path class="st16" d="M546.33,270.75c-1.7,2.7-6.92,1.35-5.86,5.37,5.46-.55,12.3.74,17.58,0-.51.81-1.85.49-2.68.5-2.42.03-14.48.35-15.59-.44-.7-.77-.33-2.41.41-3.02,2.21-.31,4.23-1.86,6.14-2.4Z"/>
  <path class="st16" d="M536.07,238.04c-.02.81.02,1.63,0,2.44h-7.33c-.28,5.7.86,10.66,4.4,15.13-.31-.3-1.21-.34-1.68-1s-2.21-4.07-2.45-4.88c-.48-1.68-1.61-9.85.06-10.25l5.73.55,1.27-1.99Z"/>
  <path class="st16" d="M547.3,266.36c.05.48,0,.98,0,1.46,0,.77.1,1.72,0,2.44-.02.17.04.36,0,.49h-.49c-.11-1.16.2-2.54-.01-3.65-.1-.51-3.94-4.93-4.57-5.47-1-.85-3.01-1.35-4.15-1.92-.76-.38-2.71-1.06-2.49-2.14,1.98,1.19,4.85,2.16,6.33,3.19,1.64,1.14,3.25,4.41,5.39,5.6Z"/>
  <path class="st16" d="M552.18,265.87c-.36.93-.19,2.18-.98,2.93-.04-.78-.05-1.66,0-2.44.01-.16-.02-.33,0-.49h.98Z"/>
  <path class="st16" d="M558.53,276.12c.91-3.81-4.56-3.34-7.02-5.34-.53-.21-.26-.64-.31-1.01,1.98,1.73,7.72,2.5,7.85,5.12.04.7.14.91-.53,1.23Z"/>
  <path class="st25" d="M553.65,263.92c-.85,1.04-.95.61-1.46,1.95h-.98c.22-1.63,1.11-1.08,2.44-1.95Z"/>
  <path class="st25" d="M554.14,263.43c.12-1.42,1.44-2.15,2.44-2.93-.73,1.03-1.59,1.99-2.44,2.93Z"/>
  <path class="st16" d="M535.09,257.57c-.88-.56-1.02-1.1-1.46-1.46l1.46,1.46Z"/>
  <path class="st0" d="M226.99,252.69c-.16-5.05,2.23-8.65,6.49-10.75.3-.15.26-.87.68-.96,3.41-.77,9.78-.47,12.37,2.17.71.71.94,1.96,1.47,2.83,1.34,2.18,2.47,3.67,2.42,6.71h-23.44Z"/>
  <path class="st24" d="M250.43,252.69c0,.33.02.65,0,.97h-23.15c-.51.06-.28-.62-.29-.97h23.44Z"/>
  <path class="st26" d="M336.36,247.8c3.94,7.63,3.02,18.95-4.22,24.34-4.98,3.71-12.27,1.64-16-2.9-1.92-2.34-2.71-4.38-3.22-7.28-.92-5.27-.41-8.93,1.95-13.67.96-1.93,2.7-4.22,4.62-5.4,1.03-.63,1.43-.29,2.22-.46,5.87-1.27,11.7-.35,14.65,5.37Z"/>
  <path class="st24" d="M340.05,245.59c-2.95-5.72-8.78-6.64-14.65-5.37-.28-1.16.62-1.1,1.43-1.23,5.58-.9,11.05,1.15,13.22,6.6Z"/>
  <path class="st13" d="M314.88,248.29c-2.37,4.74-2.87,8.4-1.95,13.67-1.48.27-.94-.75-.98-1.69-.13-3.34-.1-5.7.89-8.9.18-.6,1.01-3.39,2.04-3.08Z"/>
  <path class="st19" d="M493.59,257.57c-.81-1.14-.83-4.13,0-5.37-.04,1.78.05,3.59,0,5.37Z"/>
  <path class="st19" d="M493.59,261.48v-1.46,1.46Z"/>
  <path class="st19" d="M493.59,275.15v-.98.98Z"/>
  <path class="st19" d="M486.27,283.94h-.98.98Z"/>
  <path class="st19" d="M493.59,265.38v-.98.98Z"/>
  <path class="st19" d="M480.41,283.94h-.49c.03-.14,0-.32,0-.49l.49.49Z"/>
  <path class="st26" d="M383.24,255.13c-.66-1.73-.65-4.15-.37-5.98.03-.86,1.75-3.85,2.32-4.27,4.19-3.07,10.76-1.43,12,3.87,2.63,11.28-10.82,14.59-13.95,6.38Z"/>
  <path class="st2" d="M385.19,244.87c8.3-7.05,17.18,4.3,10.74,12.8-3.68,4.86-11.11,3.2-12.69-2.55,3.13,8.21,16.58,4.9,13.95-6.38-1.23-5.3-7.81-6.94-12-3.87Z"/>
  <rect class="st3" x="363.22" y="196.54" width=".97" height=".97"/>
  <path class="st3" d="M367.13,204.35c.09-.21.27-.43.49-.49-.13.18-.29.41-.49.49Z"/>
  <path class="st19" d="M560.49,253.18c1.27-2.64,2.21-5.42,2.66-8.32l2.71-.47c.97.95-1.63,7.52-2.44,8.79-.12.18-.35.32-.49.49l-2.68,1.47-.25-1.47c.1-.19.41-.33.49-.49Z"/>
  <path class="st16" d="M566.34,243.41c1.63,1.63-.45,8.81-2.93,9.77.81-1.27,3.41-7.84,2.44-8.79l-2.71.47c-.45,2.9-1.39,5.68-2.66,8.32l1.99-9.24,3.87-.53Z"/>
  <path class="st25" d="M566.34,243.41l-3.87.53-1.99,9.24c-.08.16-.39.3-.49.49-.52.96-.96,1.97-1.46,2.93l.53-3.54c2.05-1.62,1.65-6.56,2.65-8.67.61-1.28,3.53-2.09,4.64-.98Z"/>
  <path class="st16" d="M560,253.66l.25,1.47,2.68-1.47c-.98,1.25-1.14,1.22-2.44,1.95-.19.11-.34.33-.49.49-.32.19-1.33.64-1.46.49.5-.96.95-1.97,1.46-2.93Z"/>
  <path class="st25" d="M547.3,267.82h.98s.01,2.13.01,2.13l-.99.31c.1-.72,0-1.67,0-2.44Z"/>
  <path class="st19" d="M560,256.1c.15-.16.3-.38.49-.49-.15.17-.3.37-.49.49Z"/>
  <path class="st19" d="M532.17,246.34c-.05-.71-.21-2.64.71-2.81l3.2.37c.1.46-.1,1.06,0,1.46-.7.56-.04,2.27.15,3.03.5,2.1,1.16,4.19,1.8,6.25l-3.15-2.46-2.7-5.84Z"/>
  <path class="st16" d="M539.49,256.59c-3.6-2.09-6.99-5.94-7.32-10.25l2.7,5.84,3.15,2.46c-.65-2.05-1.3-4.15-1.8-6.25-.18-.76-.85-2.47-.15-3.03.94,3.85,2.06,7.52,3.42,11.23Z"/>
</svg>